Coordinates
version=1
nRows=7
nColumns=40
inDegrees=yes

Units are S.I. units (second, meters, Newtons, ...)
If the header above contains a line with 'inDegrees', this indicates whether rotational values are in degrees (yes) or radians (no).

endheader
time	pelvis_tilt	pelvis_list	pelvis_rotation	pelvis_tx	pelvis_ty	pelvis_tz	hip_flexion_r	hip_adduction_r	hip_rotation_r	knee_angle_r	knee_angle_r_beta	ankle_angle_r	subtalar_angle_r	mtp_angle_r	hip_flexion_l	hip_adduction_l	hip_rotation_l	knee_angle_l	knee_angle_l_beta	ankle_angle_l	subtalar_angle_l	mtp_angle_l	lumbar_extension	lumbar_bending	lumbar_rotation	arm_flex_r	arm_add_r	arm_rot_r	elbow_flex_r	pro_sup_r	wrist_flex_r	wrist_dev_r	arm_flex_l	arm_add_l	arm_rot_l	elbow_flex_l	pro_sup_l	wrist_flex_l	wrist_dev_l
      1.45000000	      3.64575286	      3.62410334	      0.32695873	     -0.32388658	      0.98349158	     -0.78699115	      4.73933972	      1.51823468	    -13.40831960	     16.19601313	      0.28267375	     -6.94615740	      0.00000000	      0.00000000	     23.61483973	     -3.99279676	     -4.11863675	     13.71872357	      0.23943690	    -20.15768856	      0.00000000	      0.00000000	     -9.91519568	    -29.61652606	    -14.35670220	     53.59329082	    -12.09666019	     18.15461642	     61.04235170	     87.57570147	      0.00000000	      0.00000000	     86.03549288	     10.97790801	     88.08861111	     10.79779910	     79.44218841	      0.00000000	      0.00000000
      1.45500000	      3.69236807	      3.61984650	      0.31467412	     -0.32402364	      0.98351685	     -0.78685826	      4.71360776	      1.51652469	    -13.57249073	     16.20072211	      0.28275594	     -6.99545577	      0.00000000	      0.00000000	     23.84895594	     -3.99042865	     -4.16413455	     13.63715418	      0.23801324	    -20.07372163	      0.00000000	      0.00000000	     -9.95935588	    -29.59695230	    -14.28632674	     53.59446943	    -12.15666740	     18.22511314	     61.06510331	     87.52012145	      0.00000000	      0.00000000	     85.96429297	     10.98068223	     88.08914745	     10.83329305	     76.69816312	      0.00000000	      0.00000000
      1.46000000	      3.75271548	      3.66838362	      0.23395672	     -0.32416728	      0.98361601	     -0.78664940	      4.67000191	      1.45754077	    -13.54630067	     16.22556482	      0.28318953	     -7.03758814	      0.00000000	      0.00000000	     24.00518205	     -3.96353826	     -4.25640160	     13.44969014	      0.23474138	    -20.18924101	      0.00000000	      0.00000000	     -9.99116160	    -29.64934322	    -14.21588190	     53.61948966	    -12.12870434	     18.30768331	     61.03607517	     87.45485167	      0.00000000	      0.00000000	     85.95230874	     10.83208587	     88.13051357	     11.07599230	     75.05341091	      0.00000000	      0.00000000
      1.46500000	      3.76906244	      3.69097860	      0.20815749	     -0.32433374	      0.98358909	     -0.78649049	      4.70620642	      1.41944565	    -13.58802371	     16.33429373	      0.28508721	     -6.95452812	      0.00000000	      0.00000000	     24.28204668	     -3.94701062	     -4.41324692	     13.36926663	      0.23333772	    -20.09795295	      0.00000000	      0.00000000	    -10.00383187	    -29.68210394	    -14.15003406	     53.58594709	    -12.09593878	     18.18040541	     60.99330618	     87.46213653	      0.00000000	      0.00000000	     85.88710544	     10.88419942	     88.16590724	     11.02371149	     72.86595798	      0.00000000	      0.00000000
      1.47000000	      3.76126856	      3.78507084	      0.07670196	     -0.32448895	      0.98350643	     -0.78618912	      4.77695234	      1.32747573	    -13.46122465	     16.41994886	      0.28658217	     -6.93327867	      0.00000000	      0.00000000	     24.50691027	     -3.90443920	     -4.69768600	     13.19169468	      0.23023851	    -20.12487533	      0.00000000	      0.00000000	     -9.92346563	    -29.79286948	    -13.99169564	     53.60576449	    -12.16393325	     18.40548869	     61.03158661	     87.51134937	      0.00000000	      0.00000000	     85.94615650	     10.81044057	     88.05784207	     10.92426096	     81.45610140	      0.00000000	      0.00000000
      1.47500000	      3.83954960	      3.80986666	      0.03250414	     -0.32461437	      0.98360080	     -0.78601161	      4.67956554	      1.31119810	    -13.46333538	     16.35769828	      0.28549569	     -6.95998880	      0.00000000	      0.00000000	     24.67736795	     -3.88863722	     -4.76224222	     13.07115632	      0.22813471	    -20.10372807	      0.00000000	      0.00000000	     -9.94102731	    -29.78147604	    -13.87040223	     53.58450778	    -12.15429520	     18.37490687	     60.98790206	     87.32040274	      0.00000000	      0.00000000	     85.88805112	     10.51176009	     88.24783686	     11.71598245	     77.93795571	      0.00000000	      0.00000000
      1.48000000	      3.81806845	      3.82685721	     -0.00212491	     -0.32479837	      0.98349175	     -0.78587938	      4.77517810	      1.27746542	    -13.51275284	     16.47940792	      0.28761993	     -6.96151686	      0.00000000	      0.00000000	     24.98192078	     -3.88889999	     -4.74932300	     13.02169713	      0.22727149	    -20.09245808	      0.00000000	      0.00000000	     -9.92890064	    -29.83882336	    -13.82301651	     53.55802649	    -12.25979272	     18.53297878	     61.07972075	     87.48899563	      0.00000000	      0.00000000	     85.78309432	     10.78119719	     88.12438095	     11.08387938	     75.71766364	      0.00000000	      0.00000000
